<?xml version="1.0" encoding="UTF-8"?>
<!DOCTYPE svg PUBLIC "-//W3C//DTD SVG 1.1//EN" "http://www.w3.org/Graphics/SVG/1.1/DTD/svg11.dtd">
<!-- Creator: CorelDRAW 2017 -->
<svg xmlns="http://www.w3.org/2000/svg" xml:space="preserve" width="16.9334mm" height="3.9066mm" version="1.1" style="shape-rendering:geometricPrecision; text-rendering:geometricPrecision; image-rendering:optimizeQuality; fill-rule:evenodd; clip-rule:evenodd"
viewBox="0 0 2293.66 529.16"
 xmlns:xlink="http://www.w3.org/1999/xlink">
 <defs>
  <style type="text/css">
   <![CDATA[
    .fil0 {fill:#FEFEFE}
   ]]>
  </style>
 </defs>
 <g id="Layer_x0020_1">
  <metadata id="CorelCorpID_0Corel-Layer"/>
  <g id="_1977473569200">
   <path class="fil0" d="M144.54 97.96c-37.2,16.34 -43.09,-35.11 -5.89,-28.39 9.35,1.69 22.01,-6.18 30.06,-13.67 11.23,-10.46 8.78,-20.03 5.23,-36.31 -58.26,3.75 -171.58,120.04 -167.04,198.4l46.41 10.09c8.44,-26.98 24.22,-20.51 43.9,-12.49 17.04,-12.42 10.93,-3.28 16.36,-22.11 5.63,-19.51 3.62,-11.74 2.26,-38.1 -6.22,-5.36 -14.01,-7.14 -15.29,-17.11 -1.3,-9.92 5.05,-17.23 13.68,-18.42 19.48,-2.71 28.54,22.35 8.05,31.91 1.54,42.5 1.5,42.98 30.14,52.14 11.13,-10.21 31.28,-73.71 124.74,-78.12 -3.07,-7.41 -13.1,-18.19 -18.33,-24.48 -8.9,-10.69 -21.44,-11.73 -30.14,-7.06 -2.07,11.69 7.49,6.5 -1.06,22.53 -9.82,0.92 -21.13,-0.3 -16.8,-12.66 3.89,-11.11 7.14,-2.55 14.55,-13.67 -1.86,-9.35 -6.35,-8.07 -8.21,-27.39 -7.36,-2.94 -16.54,-8.24 -22.49,-7.49 -50.71,6.37 -48.33,37.85 -50.13,42.4z"/>
   <path class="fil0" d="M255 400.13c-14.57,-2.38 -47.75,-16.89 -50.67,-16.89 -0.37,0.7 -0.56,1.69 -0.68,2.28 -0.12,0.57 -0.47,1.57 -0.6,2.3l-0.64 4.84c-0.03,0.3 0.45,8.25 0.39,10.31 7.96,1.8 33.17,-8.55 26.48,10.97 -6.64,19.37 -18.6,-1.49 -24.48,-5.72 -13.45,4.43 -3.85,7.26 -26.74,12.61 -0.95,5.15 -3.59,14.37 -3.26,18.69l5 14.32c4.54,10.73 9.28,15.25 15.77,22.74 14.33,16.51 10.9,-2.32 27.05,8.52 10.2,6.84 6.3,18.94 2.61,26.97 -9.44,2.84 -14.82,2.89 -24.33,0.07 -3.07,-6.58 -2.25,-35.39 -24.88,-46.74 -12.71,-6.35 -47.25,2.56 -55.41,12.84 -3.2,9.98 15.4,17.16 28.04,23.05 40.13,18.72 78.79,27.35 125.14,27.86 87.92,0.96 111.69,-27.96 157.86,-48.03 -13.68,-27.75 -26.63,-19.42 -38.77,-16.69 1.07,18.25 6.47,0.84 4.97,22.66 -6.6,3.79 -17.36,8.57 -19.78,-3.49 -3.03,-15.05 5.87,-7.42 10.47,-19.17 0.74,-8.43 -6.43,-3.79 -13.36,-26.62 -4.61,-0.65 -10.9,-2.11 -15.06,-2.52 -9.86,-0.98 -4.93,-1.23 -11.45,1.9l-11.16 5.38c-35.04,14.94 -20.11,31.28 -27.51,43.66 -17.84,29.81 -55.68,-20.13 -11.55,-25.18 9.78,-1.12 7.02,1.53 22.23,-13.18 16.46,-15.93 11.58,-30.84 0.05,-51.59 -23.07,5.15 -40.31,8.02 -65.75,3.86z"/>
   <path class="fil0" d="M431.58 93.35c4.93,-14.8 13.48,-22.76 18.77,-37.68 -13.26,-6.15 -28.21,-17.53 -45.5,-25.93 -10.65,-5.16 -40.3,-17.97 -52.26,-19.64 -13.38,-1.84 -87.33,49.68 -87.94,52.99l-1.22 6.92c-1.68,8.55 -1.88,11.66 -7.71,18.12 44.7,57.04 27.08,28.7 79.79,46.88 30.12,10.38 64.58,32.1 75.54,51.61 12.23,-6.3 75.23,-91.8 77.52,-97.62 -7.21,-6.56 -24.76,-24.48 -35.23,-28.11l-18.95 33.78c4.43,6.03 12.34,11.62 12.24,24.81 -0.07,10.93 -6.42,19.37 -14.79,23.05 -11.12,4.88 -23.05,2.02 -30,-4.84 -8.06,-7.95 -6.91,-15.6 -7.71,-27.98l-43.09 -13.29 -8.68 6.31c-9.32,5.01 -19.03,2.65 -23.14,-4.24 -8.28,-13.87 2.93,-28.54 17.62,-26.32 9.12,1.37 9.55,4.63 13.11,12.43 4.67,10.21 -4.75,5.26 11.34,10.86 9.89,3.44 26.58,8.26 37.53,10.51 8.14,-13.69 13.25,-13.03 32.73,-12.65z"/>
   <path class="fil0" d="M23.2 373.37c9.59,34.34 45.24,69.91 64.07,87.3 15.67,14.48 32.98,9.9 53.52,3.18 21.63,-7.07 22.28,-2.89 30.94,-43.57l-13.82 -15.64c-4.5,0.31 -9.14,0.22 -13.46,1.65 -14.03,4.66 -7.67,13.49 -24.52,5.23 -5.99,-27.02 11.7,-11.77 26.97,-12.43l9.66 -2.6c0.42,-0.95 1.49,-0.64 2.19,-1.04 4.46,-14.87 1.79,-9.98 -7.49,-20.83l-45.67 -53.16c-19.87,11.89 -17.27,11.39 -45.16,6.81 -9.7,16.06 -26.54,28.72 -37.22,45.12z"/>
   <path class="fil0" d="M1445.06 392.97c0.47,-46.38 -17.53,-146.11 37.21,-150.05 52.08,-3.77 32.87,112.83 33.61,151.99l56.1 -0.51c0.74,-51.17 -18.84,-150.99 40.13,-151.57 48.49,-0.47 32.82,78.97 34.13,152.07l56.14 -0.56 0.12 -105.07c0.03,-100.74 -76.67,-123.99 -147.52,-60.07 -40.53,-49.51 -60.89,-39.47 -109.88,-13.94 -1.42,-31.03 1.92,-8.32 -7.19,-17.51l-48.46 0.03 0.05 197.87 55.55 -2.67z"/>
   <path class="fil0" d="M425.85 271.27c11.62,73.36 129.61,60.21 118.79,-19.3 -10.38,-76.25 -131.88,-63.3 -118.79,19.3z"/>
   <path class="fil0" d="M862.87 177.77c-19.15,-15.33 -32.21,-30.1 -65.65,-39.44 -84.75,-23.69 -177.36,31.71 -175.29,131.67 2.72,130.94 161.3,169.45 239.48,78.51l-31.15 -35.75c-29.07,11.15 -46.51,44.55 -99.64,27.27 -68,-22.13 -65.46,-134.1 9.54,-149.81 47.03,-9.86 67.67,13.91 89.03,30.17l33.69 -42.61z"/>
   <path class="fil0" d="M1872.12 275.97l-84.54 0.42c5.5,-21.97 15.9,-34.2 41.65,-35.46 27,-1.33 38.1,12.6 42.88,35.04zm12.35 59.23c-0.16,0.05 -82.21,47.88 -98.26,-18.62l142.31 -0.62 1.18 -17.03c10.44,-118.03 -152.61,-135.6 -191.45,-47.56 -51.7,117.22 101.18,196.96 174.31,113.83l-28.09 -30z"/>
   <path class="fil0" d="M982.33 197.71c-0.93,37.33 -6.2,133.69 8.29,162.35 19.8,39.21 85.15,54.87 114.54,16.42l7.38 12.2c0.64,0.65 1.52,1.79 2.23,2.34 8.79,6.84 -0.87,2.95 13.71,4.58 8.74,0.98 29.69,-0.34 40.09,-0.31l-0.23 -197.92 -56.23 2.7c-0.74,57.89 21.28,163.61 -55.64,146.92 -30.27,-26.43 -17.65,-102.42 -18.49,-149.23l-55.66 -0.05z"/>
   <path class="fil0" d="M2066.67 294.09c15.98,-30.94 46.62,-64.1 65.06,-95.36 -86.19,-4.81 -58.61,0.61 -89.8,37.95 -0.62,0.73 -1.72,1.92 -2.3,2.57l-5.11 4.7c-0.38,-0.81 -1.76,1.54 -2.7,2.23 -44.67,-51.42 -1.41,-48.41 -97.82,-48.46 15.63,31.79 44.4,65.82 62.31,96.36 -12.38,30.88 -51.08,68.5 -65.8,101.07l64.15 0.14c6.57,-12.18 25.44,-42.4 36.8,-51.61 46.47,62.61 27.14,51.59 102.52,51.5 -18.2,-32.94 -54.78,-72.02 -67.31,-101.1z"/>
   <path class="fil0" d="M163.57 381.3c12.57,-4.56 12.15,-6.57 28.23,-2.97 39.35,8.79 -78.25,-18.52 -40.32,-167.62 -26.82,-14.78 -32.89,-1.96 -50.93,10.93 9.09,40.78 -18.62,22.93 -19.32,46.88 12.2,8.85 23.58,7.38 28.3,23.64 6.54,22.53 -9.45,16.74 7.27,36.78l46.77 52.37z"/>
   <path class="fil0" d="M1353.95 218.57c-107.87,-72.86 -206.67,39.09 -114.61,85.93 46.58,23.7 64.16,10.35 63.93,42.71 -28.3,22.3 -66.53,-4.33 -88.31,-13.92 -7.26,11.88 -14.48,20.7 -20.89,33.24 34.15,38.54 132.21,45.85 157.87,-3.77 32.09,-62.02 -33.06,-80.92 -65.11,-91.32 -22.01,-7.14 -26.49,-5.97 -27.89,-25.61 25.72,-18.5 54.41,-1.1 76.08,8.03l18.92 -35.29z"/>
   <path class="fil0" d="M58.33 326.47c-9.36,-25.19 -17.58,-36.29 8.94,-52.14 16.29,-9.73 7.07,-13.68 -2.64,-20.07 -25.02,-16.44 7.87,-17.51 -36.5,-26.95 -23.43,-5 -18.9,-2.8 -21.93,0.66 -17.31,26.2 6.68,111.5 12.54,138.34 16.02,-7.5 21.06,-24.34 39.59,-39.84z"/>
   <path class="fil0" d="M2169.29 240.98c1.69,43.83 -8.83,106.65 16.73,135.55 33.9,38.33 75.18,19.55 107.63,-0.51l-19.68 -38.59c-12.23,6.05 -19.75,12.1 -40.28,9.92 -12.57,-26.09 -9.21,-78.18 -6.34,-108.98l46.62 -0.45 -0.27 -39.96 -47.68 -1.31 -0.03 -57.77 -56.17 -0.01 -0.04 53.84c-10.93,8.01 -6.7,4.73 -22.85,5.09l-0.31 9.4 0.11 30.14 22.57 3.66z"/>
   <path class="fil0" d="M390.41 417.52c0.04,-5.17 0.39,-10.46 -1.5,-15.82 -1.77,-5.03 -22.2,-26.17 0.76,-26.03 20.64,0.12 1.63,12.61 9.44,40.39l15.41 4.62c11.08,-9.81 28.77,-28.7 37.21,-41.79 -7.33,-10.99 -33.7,-40.72 -42.72,-46.76 -70.37,69.53 -51.44,38.39 -82.59,63.31 6.01,18.79 7.1,22.58 16.34,27.74 4.27,2.37 4.69,2.53 9.59,4.01 27.9,8.41 27.32,0 38.06,-9.67z"/>
   <path class="fil0" d="M178.54 15.96c1.5,28.38 30.98,50.84 58.81,29.05 2.93,-28.77 -10.38,-18.88 -3.02,-39.12 31.52,-9.29 11.87,22.97 11.85,23.03 -1.71,5.5 -1.33,10.39 -1.45,16.09l19.04 11.15c6.43,-6.88 26.48,-17.46 36.23,-23.54 8.51,-5.32 31.41,-18.37 38.39,-26.3 -58.65,-8.47 -104.99,-11.17 -159.86,9.64z"/>
   <path class="fil0" d="M889.61 122.71c-8.36,31.57 -3.56,226.29 -2.6,272.94l55.9 -2.67 0.66 -249.14c-0.89,-32.05 -18.6,-21.28 -53.96,-21.13z"/>
   <path class="fil0" d="M439.19 474.52c15.62,-13.06 41.61,-30.33 54.52,-48.72 -6.28,-7.44 -11.38,-15.01 -18.48,-22.13 -8.19,-8.24 -12.96,-14.86 -19.32,-19.69 -6.46,4.32 -21.88,21.96 -28.38,30.08 -15.71,19.63 1.07,15.27 -8.8,40.74l20.45 19.72z"/>
  </g>
 </g>
</svg>
