<?xml version="1.0" encoding="UTF-8"?>
<!DOCTYPE svg PUBLIC "-//W3C//DTD SVG 1.1//EN" "http://www.w3.org/Graphics/SVG/1.1/DTD/svg11.dtd">
<!-- Creator: CorelDRAW 2017 -->
<svg xmlns="http://www.w3.org/2000/svg" xml:space="preserve" width="8.0000mm" height="8.0000mm" version="1.1" style="shape-rendering:geometricPrecision; text-rendering:geometricPrecision; image-rendering:optimizeQuality; fill-rule:evenodd; clip-rule:evenodd"
viewBox="0 0 6.7 6.7"
 xmlns:xlink="http://www.w3.org/1999/xlink">
 <defs>
  <style type="text/css">
   <![CDATA[
    .fil1 {fill:none}
    .fil0 {fill:#FEFEFE}
   ]]>
  </style>
 </defs>
 <g id="Layer_x0020_1">
  <metadata id="CorelCorpID_0Corel-Layer"/>
  <g id="_1634768218944">
   <g>
    <path class="fil0" d="M2.13 1.72c-0.37,0.16 -0.43,-0.35 -0.06,-0.28 0.09,0.02 0.22,-0.06 0.3,-0.14 0.11,-0.1 0.09,-0.2 0.05,-0.36 -0.58,0.04 -1.72,1.2 -1.67,1.99l0.46 0.1c0.08,-0.27 0.24,-0.21 0.44,-0.13 0.17,-0.12 0.11,-0.03 0.16,-0.22 0.06,-0.2 0.04,-0.12 0.02,-0.38 -0.06,-0.05 -0.14,-0.07 -0.15,-0.17 -0.01,-0.1 0.05,-0.17 0.14,-0.18 0.2,-0.03 0.29,0.22 0.08,0.32 0.02,0.43 0.02,0.43 0.3,0.52 0.11,-0.1 0.31,-0.74 1.25,-0.78 -0.03,-0.07 -0.13,-0.18 -0.18,-0.24 -0.09,-0.11 -0.21,-0.12 -0.3,-0.07 -0.02,0.12 0.07,0.06 -0.01,0.23 -0.1,0.01 -0.21,-0 -0.17,-0.13 0.04,-0.11 0.07,-0.03 0.15,-0.14 -0.02,-0.09 -0.06,-0.08 -0.08,-0.27 -0.07,-0.03 -0.17,-0.08 -0.22,-0.07 -0.51,0.06 -0.48,0.38 -0.5,0.42z"/>
    <path class="fil0" d="M3.23 4.74c-0.15,-0.02 -0.48,-0.17 -0.51,-0.17 -0,0.01 -0.01,0.02 -0.01,0.02 -0,0.01 -0,0.02 -0.01,0.02l-0.01 0.05c-0,0 0,0.08 0,0.1 0.08,0.02 0.33,-0.09 0.27,0.11 -0.07,0.19 -0.19,-0.01 -0.24,-0.06 -0.13,0.04 -0.04,0.07 -0.27,0.13 -0.01,0.05 -0.04,0.14 -0.03,0.19l0.05 0.14c0.05,0.11 0.09,0.15 0.16,0.23 0.14,0.17 0.11,-0.02 0.27,0.09 0.1,0.07 0.06,0.19 0.03,0.27 -0.09,0.03 -0.15,0.03 -0.24,0 -0.03,-0.07 -0.02,-0.35 -0.25,-0.47 -0.13,-0.06 -0.47,0.03 -0.55,0.13 -0.03,0.1 0.15,0.17 0.28,0.23 0.4,0.19 0.79,0.27 1.25,0.28 0.88,0.01 1.12,-0.28 1.58,-0.48 -0.14,-0.28 -0.27,-0.19 -0.39,-0.17 0.01,0.18 0.06,0.01 0.05,0.23 -0.07,0.04 -0.17,0.09 -0.2,-0.03 -0.03,-0.15 0.06,-0.07 0.11,-0.19 0.01,-0.08 -0.06,-0.04 -0.13,-0.27 -0.05,-0.01 -0.11,-0.02 -0.15,-0.03 -0.1,-0.01 -0.05,-0.01 -0.11,0.02l-0.11 0.05c-0.35,0.15 -0.2,0.31 -0.28,0.44 -0.18,0.3 -0.56,-0.2 -0.12,-0.25 0.1,-0.01 0.07,0.02 0.22,-0.13 0.16,-0.16 0.12,-0.31 0,-0.52 -0.23,0.05 -0.4,0.08 -0.66,0.04z"/>
    <path class="fil0" d="M5 1.67c0.05,-0.15 0.13,-0.23 0.19,-0.38 -0.13,-0.06 -0.28,-0.18 -0.46,-0.26 -0.11,-0.05 -0.4,-0.18 -0.52,-0.2 -0.13,-0.02 -0.87,0.5 -0.88,0.53l-0.01 0.07c-0.02,0.09 -0.02,0.12 -0.08,0.18 0.45,0.57 0.27,0.29 0.8,0.47 0.3,0.1 0.65,0.32 0.76,0.52 0.12,-0.06 0.75,-0.92 0.78,-0.98 -0.07,-0.07 -0.25,-0.24 -0.35,-0.28l-0.19 0.34c0.04,0.06 0.12,0.12 0.12,0.25 -0,0.11 -0.06,0.19 -0.15,0.23 -0.11,0.05 -0.23,0.02 -0.3,-0.05 -0.08,-0.08 -0.07,-0.16 -0.08,-0.28l-0.43 -0.13 -0.09 0.06c-0.09,0.05 -0.19,0.03 -0.23,-0.04 -0.08,-0.14 0.03,-0.29 0.18,-0.26 0.09,0.01 0.1,0.05 0.13,0.12 0.05,0.1 -0.05,0.05 0.11,0.11 0.1,0.03 0.27,0.08 0.38,0.11 0.08,-0.14 0.13,-0.13 0.33,-0.13z"/>
    <path class="fil0" d="M0.91 4.47c0.1,0.34 0.45,0.7 0.64,0.87 0.16,0.14 0.33,0.1 0.54,0.03 0.22,-0.07 0.22,-0.03 0.31,-0.44l-0.14 -0.16c-0.04,0 -0.09,0 -0.13,0.02 -0.14,0.05 -0.08,0.14 -0.25,0.05 -0.06,-0.27 0.12,-0.12 0.27,-0.12l0.1 -0.03c0,-0.01 0.01,-0.01 0.02,-0.01 0.04,-0.15 0.02,-0.1 -0.07,-0.21l-0.46 -0.53c-0.2,0.12 -0.17,0.11 -0.45,0.07 -0.1,0.16 -0.27,0.29 -0.37,0.45z"/>
    <path class="fil0" d="M4.94 3.45c0.12,0.73 1.3,0.6 1.19,-0.19 -0.1,-0.76 -1.32,-0.63 -1.19,0.19z"/>
    <path class="fil0" d="M2.32 4.55c0.13,-0.05 0.12,-0.07 0.28,-0.03 0.39,0.09 -0.78,-0.19 -0.4,-1.68 -0.27,-0.15 -0.33,-0.02 -0.51,0.11 0.09,0.41 -0.19,0.23 -0.19,0.47 0.12,0.09 0.24,0.07 0.28,0.24 0.07,0.23 -0.09,0.17 0.07,0.37l0.47 0.52z"/>
    <path class="fil0" d="M1.26 4c-0.09,-0.25 -0.18,-0.36 0.09,-0.52 0.16,-0.1 0.07,-0.14 -0.03,-0.2 -0.25,-0.16 0.08,-0.18 -0.37,-0.27 -0.23,-0.05 -0.19,-0.03 -0.22,0.01 -0.17,0.26 0.07,1.12 0.13,1.38 0.16,-0.07 0.21,-0.24 0.4,-0.4z"/>
    <path class="fil0" d="M4.59 4.92c0,-0.05 0,-0.1 -0.01,-0.16 -0.02,-0.05 -0.22,-0.26 0.01,-0.26 0.21,0 0.02,0.13 0.09,0.4l0.15 0.05c0.11,-0.1 0.29,-0.29 0.37,-0.42 -0.07,-0.11 -0.34,-0.41 -0.43,-0.47 -0.7,0.7 -0.51,0.38 -0.83,0.63 0.06,0.19 0.07,0.23 0.16,0.28 0.04,0.02 0.05,0.03 0.1,0.04 0.28,0.08 0.27,0 0.38,-0.1z"/>
    <path class="fil0" d="M2.47 0.9c0.01,0.28 0.31,0.51 0.59,0.29 0.03,-0.29 -0.1,-0.19 -0.03,-0.39 0.32,-0.09 0.12,0.23 0.12,0.23 -0.02,0.06 -0.01,0.1 -0.01,0.16l0.19 0.11c0.06,-0.07 0.27,-0.17 0.36,-0.24 0.09,-0.05 0.31,-0.18 0.38,-0.26 -0.59,-0.08 -1.05,-0.11 -1.6,0.1z"/>
    <path class="fil0" d="M5.08 5.49c0.16,-0.13 0.42,-0.3 0.55,-0.49 -0.06,-0.07 -0.11,-0.15 -0.18,-0.22 -0.08,-0.08 -0.13,-0.15 -0.19,-0.2 -0.06,0.04 -0.22,0.22 -0.28,0.3 -0.16,0.2 0.01,0.15 -0.09,0.41l0.2 0.2z"/>
   </g>
   <rect class="fil1" x="0" y="0" width="6.7" height="6.7"/>
  </g>
 </g>
</svg>
